HIERARCHY
ROOT Hips
{
  OFFSET 0 0 0
  CHANNELS 6 Xposition Yposition Zposition Zrotation Xrotation Yrotation
  JOINT Spine
  {
    OFFSET 0 10.1816 0.131521
    CHANNELS 3 Zrotation Xrotation Yrotation
    JOINT Spine1
    {
      OFFSET 0 10.0835 -1.0008
      CHANNELS 3 Zrotation Xrotation Yrotation
      JOINT Spine2
      {
        OFFSET 0 9.10001 -1.37342
        CHANNELS 3 Zrotation Xrotation Yrotation
        JOINT Neck
        {
          OFFSET 0 16.6717 -2.51617
          CHANNELS 3 Zrotation Xrotation Yrotation
          JOINT Head
          {
            OFFSET 0 9.61788 1.68501
            CHANNELS 3 Zrotation Xrotation Yrotation
            End Site
            {
              OFFSET 0 0 0
            }
          }
        }
        JOINT LeftShoulder
        {
          OFFSET 4.57045 10.946 -2.62799
          CHANNELS 3 Zrotation Xrotation Yrotation
          JOINT LeftArm
          {
            OFFSET 10.5924 -0.524583 -2.23212
            CHANNELS 3 Zrotation Xrotation Yrotation
            JOINT LeftForeArm
            {
              OFFSET 27.8415 -8.94286e-05 3.74589e-05
              CHANNELS 3 Zrotation Xrotation Yrotation
              JOINT LeftHand
              {
                OFFSET 28.3288 -1.74407e-05 3.78045e-05
                CHANNELS 3 Zrotation Xrotation Yrotation
                End Site
                {
                  OFFSET 0 0 0
                }
              }
            }
          }
        }
        JOINT RightShoulder
        {
          OFFSET -4.56997 10.9462 -2.62802
          CHANNELS 3 Zrotation Xrotation Yrotation
          JOINT RightArm
          {
            OFFSET -10.5928 -0.524798 -2.2321
            CHANNELS 3 Zrotation Xrotation Yrotation
            JOINT RightForeArm
            {
              OFFSET -27.8415 -3.30792e-05 1.16763e-05
              CHANNELS 3 Zrotation Xrotation Yrotation
              JOINT RightHand
              {
                OFFSET -28.3288 0 5.5816e-05
                CHANNELS 3 Zrotation Xrotation Yrotation
                End Site
                {
                  OFFSET 0 0 0
                }
              }
            }
          }
        }
      }
    }
  }
  JOINT LeftUpLeg
  {
    OFFSET 8.20778 -6.75171 -1.59956
    CHANNELS 3 Zrotation Xrotation Yrotation
    JOINT LeftLeg
    {
      OFFSET 0 -44.3705 0.284643
      CHANNELS 3 Zrotation Xrotation Yrotation
      JOINT LeftFoot
      {
        OFFSET 0 -44.4279 -2.98219
        CHANNELS 3 Zrotation Xrotation Yrotation
        JOINT LeftToeBase
        {
          OFFSET 0 -8.72867 10.7106
          CHANNELS 3 Zrotation Xrotation Yrotation
          End Site
          {
            OFFSET 0 0 0
          }
        }
      }
    }
  }
  JOINT RightUpLeg
  {
    OFFSET -8.2078 -6.75166 -1.59956
    CHANNELS 3 Zrotation Xrotation Yrotation
    JOINT RightLeg
    {
      OFFSET 0 -44.3705 0.286156
      CHANNELS 3 Zrotation Xrotation Yrotation
      JOINT RightFoot
      {
        OFFSET 0 -44.4277 -2.98379
        CHANNELS 3 Zrotation Xrotation Yrotation
        JOINT RightToeBase
        {
          OFFSET 0 -8.72867 10.7106
          CHANNELS 3 Zrotation Xrotation Yrotation
          End Site
          {
            OFFSET 0 0 0
          }
        }
      }
    }
  }
}
MOTION
Frames:	15
Frame Time:	0.0333333
-1.549230 243.192000 365.279000 -1.191900 10.076298 -5.446429 8.84388 0.839254 -2.92662 4.47594 -9.19612 0.862941 5.73373 -14.279 1.82993 -0.888903 -12.5255 2.77559 3.03501 -6.2909 4.50581 -10.9921 -50.5151 -48.5263 -18.0747 -20.6775 -23.417 -0.000217777 -5.01606e-06 -63.284 21.3999 -75.1443 59.7253 -21.5938 -24.0844 48.3399 44.9372 -59.3902 80.8903 -3.53629e-06 -9.15665e-06 31.3747 -20.3943 -50.0768 -46.1072 16.6822 12.7672 12.6962 4.08396 35.959 -11.0417 -9.60615 35.8732 -4.33443 -2.52741e-06 29.3089 2.06384e-06 -17.6879 22.0048 -17.9355 -0.360861 78.9964 3.16947 -9.73037 31.5483 7.43895 1.16844e-05 23.259 -9.08141e-06 
 -0.598688 240.104439 373.991934 1.986329 8.815136 -5.992453 6.47528 0.987841 -2.07024 3.54639 -7.45852 0.63431 4.55799 -11.6665 1.35594 -0.752841 -11.7226 2.75084 2.40455 -4.99981 4.62707 -9.05962 -49.6606 -46.3513 -14.0934 -25.8707 -29.198 -0.000200042 -2.29096e-06 -60.1277 24.6892 -77.3588 64.6653 -23.4081 -25.3597 49.9263 36.4065 -66.9311 75.611 1.59662e-07 0 30.8708 -22.2256 -52.065 -50.9398 15.7976 11.1033 13.082 3.18621 37.8554 -10.1969 -11.4817 33.5845 -1.72014 -6.65638e-07 26.7055 9.1179e-07 -16.6101 20.9049 -17.2815 -5.53774 77.7268 9.81933 -1.51645 32.8442 5.38927 1.2084e-05 19.8125 -3.36804e-06 
 -0.004720 237.771275 382.401965 5.138337 7.683192 -6.614296 4.2501 0.842701 -1.10007 2.7871 -5.78726 0.494508 3.54114 -8.98583 0.981375 -0.613283 -10.8887 2.72126 1.74094 -3.68155 4.8531 -7.19835 -48.7056 -44.2518 -10.2829 -31.1373 -31.7232 -0.000190035 -1.10101e-05 -60.5097 35.0538 -78.9417 76.3781 -23.8995 -25.0143 48.5242 27.3157 -70.7425 73.0506 -1.51846e-05 1.03461e-05 29.3695 -25.4391 -54.329 -55.8818 15.3451 8.38648 13.6083 1.64511 40.2176 -7.68844 -11.5466 33.4287 -1.67466 2.25166e-06 21.3913 -4.66835e-06 -15.2503 18.0139 -16.4813 -7.43142 77.0715 12.6258 6.37511 31.5891 3.4723 -1.65991e-05 16.3105 3.16191e-06 
 0.379375 235.754217 391.535552 8.232349 6.228752 -7.381770 1.57294 0.637795 -0.0900985 1.63974 -4.10142 0.25221 2.13793 -6.26804 0.542725 -0.471057 -10.0297 2.68666 1.04899 -2.33822 5.17606 -5.4189 -47.6555 -42.2359 -7.20654 -36.2095 -36.2243 -0.000202702 -4.72449e-06 -60.4568 48.0958 -79.1175 91.3109 -22.5182 -23.0788 45.1535 19.024 -74.5319 72.3359 2.94311e-07 -9.04106e-06 28.6419 -30.4129 -57.1729 -62.876 14.5674 5.54621 14.2263 0.71274 42.4638 -6.03716 -12.7047 33.183 -0.70808 -1.84968e-06 17.6875 -1.45337e-06 -13.3531 14.8121 -14.7843 -7.58143 75.2462 12.9409 14.3168 29.3227 1.24692 -9.46076e-06 12.8486 8.05522e-06 
 0.879455 234.294487 402.267744 9.721994 4.539949 -7.609731 0.67264 0.286802 0.277892 0.953118 -2.6152 0.349273 1.23683 -3.83804 0.493923 -0.326954 -9.1513 2.64696 0.333353 -0.972072 5.58763 -3.72932 -46.5162 -40.3092 -4.21596 -41.9476 -38.3041 -0.000224354 5.80551e-06 -62.8708 66.9195 -77.3639 112.599 -21.1048 -21.3232 41.302 12.3794 -77.8603 73.0195 1.25449e-05 5.94211e-06 28.1494 -36.5007 -59.4081 -71.8527 14.3531 3.41049 14.4587 0.876526 43.1674 -6.09234 -12.3954 32.1518 -0.0681392 -1.44782e-06 15.1143 -4.05741e-06 -11.0544 8.84112 -14.4449 -4.16974 73.4036 9.01177 17.4103 23.9404 1.49937 1.12851e-05 13.9662 1.56727e-06 
 1.620599 232.477787 413.281701 10.701065 2.264028 -7.303961 0.18489 -0.0630519 0.285496 0.289135 -1.59694 0.257728 0.400984 -2.07967 0.308916 -0.177257 -8.25828 2.6118 -0.398464 0.415588 6.08847 -2.13517 -45.2939 -38.4748 -1.9712 -45.4332 -41.5951 -0.000198173 -5.30537e-06 -60.4313 77.2049 -77.3196 124.249 -21.7523 -21.1049 37.239 8.7317 -80.0658 72.4149 -1.18407e-05 -3.31154e-06 25.0714 -40.2256 -62.9733 -77.3027 14.4426 1.71953 14.2498 1.0457 43.501 -5.40399 -14.3497 34.7741 2.03314 9.34235e-07 3.51832 6.57402e-07 -8.57392 4.19189 -13.5411 -3.36961 69.6783 9.70962 25.184 21.9806 -1.55228 1.91183e-05 14.2789 -1.44986e-05 
 2.479935 230.964807 425.038814 11.451433 -0.597450 -6.254816 0.319748 -0.294858 0.0989219 -0.229336 -0.999806 0.100799 -0.215446 -1.05846 0.10556 -0.0264721 -7.35744 2.5731 -1.14473 1.82099 6.66124 -0.640031 -43.995 -36.7339 0.151624 -47.7627 -42.7867 -0.000162226 -3.93555e-06 -58.1606 89.9666 -77.2461 137.911 -26.0518 -23.224 32.4205 12.2785 -80.3074 71.5284 9.50676e-06 -1.33858e-05 26.609 -46.7594 -64.3122 -85.769 14.6025 -0.0290552 14.5099 1.04125 43.8419 -6.26707 -15.1759 33.0039 3.56294 5.82763e-06 2.95394 2.07282e-07 -5.86939 1.02994 -11.6121 -4.90558 65.3846 9.88659 28.7415 11.6011 -0.648844 -6.64562e-06 32.3424 1.25149e-05 
 3.079405 229.769401 436.107058 12.618075 -3.824483 -4.600809 -0.681931 -0.0907894 0.178359 -0.717682 -0.477187 -0.12167 -0.718174 -0.477199 -0.118597 0.124149 -6.45474 2.52991 -1.90141 3.24137 7.29495 0.754345 -42.626 -35.0857 1.77559 -47.9345 -45.7046 -0.00020112 2.42185e-06 -51.805 108.192 -79.412 155.24 -32.4587 -27.0328 27.8179 20.6846 -78.8491 70.268 2.22119e-06 4.74572e-06 29.1354 -48.924 -64.1991 -89.0823 16.0437 -3.55825 15.29 0.409895 52.3128 -6.39845 -18.4072 27.4703 5.00113 4.98669e-07 5.66771 2.28691e-06 -5.69021 -1.92594 -9.32935 -4.51507 62.2499 7.4869 29.7089 16.0698 0.123988 -2.47449e-07 14.5015 -2.66989e-06 
 3.682512 230.403178 447.151130 13.145972 -7.712369 -2.662848 -0.233311 0.260092 -0.0817981 -1.03372 0.232789 -0.173444 -1.03292 0.232844 -0.170525 0.351499 -5.68677 2.52578 -2.59485 4.63936 7.79203 2.04757 -41.1934 -33.5282 2.4994 -47.5837 -44.9786 -0.000198861 -4.95264e-06 -50.5597 124.433 -78.9856 169.857 -38.2005 -31.1735 25.3659 26.9967 -75.799 66.5608 -1.11355e-05 2.56972e-07 33.8616 -48.9707 -61.8107 -90.0154 18.0173 -7.85364 16.4426 -1.56297 62.4445 -6.28062 -21.5504 22.7099 5.69379 8.07847e-06 0.934607 1.43333e-06 -7.13063 -5.30406 -9.22226 -2.88221 61.8784 2.68005 29.2205 18.1185 -2.21708 3.9337e-07 1.58456 6.79079e-06 
 3.906350 231.585993 459.036507 13.559302 -11.951498 -1.434847 0.0558801 0.590332 -0.24229 -1.23015 0.888471 -0.203517 -1.22475 0.888564 -0.202426 0.681353 -5.09714 2.56679 -3.17447 6.0522 8.07612 3.2404 -39.7037 -32.0581 2.7116 -47.2809 -43.9064 -0.000192992 -7.78476e-06 -51.0794 132.615 -77.4919 177.158 -40 -33.7853 25.2464 27.9832 -73.0027 62.8685 -1.74911e-06 -5.19494e-06 35.7269 -48.5623 -60.4724 -90.5278 21.3448 -14.3351 19.4068 -7.36905 76.3004 -1.98975 -19.9761 16.2566 1.00945 -9.78923e-06 -1.41468 -6.17248e-06 -10.4184 -9.94096 -10.0366 -0.132102 65.2781 -4.17734 23.6323 17.0324 -0.529683 9.80977e-07 0.275381 -5.06523e-06 
 3.773538 233.895870 471.130900 14.126319 -16.461024 -0.316046 0.135022 0.90209 -0.302094 -1.40331 1.53475 -0.23003 -1.39058 1.5348 -0.233092 1.04192 -4.56414 2.61054 -3.69986 7.51913 8.31441 4.33434 -38.1631 -30.6715 1.71444 -46.5257 -42.326 -0.000216289 -1.60952e-07 -54.4921 133.03 -75.3734 176.471 -40 -35.451 26.7611 26.726 -70.4734 57.0138 -9.20431e-06 -2.15362e-06 40.3299 -49.9573 -58.0216 -92.872 27.9076 -22.4518 24.8256 -98.8732 85.9213 90.0817 -22.2064 11.9381 -10.3749 3.97448e-06 3.1488 6.55215e-06 -14.0431 -16.8843 -11.7506 1.13584 71.5974 -3.8686 20.12 12.3481 0.932813 8.40531e-06 0.284001 -5.71474e-06 
 3.385601 237.432061 483.248779 14.592841 -21.228693 0.748601 0.272973 1.19841 -0.367045 -1.55425 2.17182 -0.253288 -1.5332 2.17172 -0.258265 1.43026 -4.08219 2.6569 -4.17848 9.03016 8.51241 5.33151 -36.5778 -29.3636 -0.29548 -45.0354 -40.4828 -0.000199461 -9.85912e-07 -59.9779 129.708 -73.0032 171.552 -40 -36.3777 29.3597 24.6603 -68.6671 48.2162 1.01753e-05 -7.96719e-06 48.3416 -52.6091 -54.3694 -96.4055 35.3898 -30.4518 32.427 -155.78 77.0392 147.621 -20.3412 10.7735 -15.5848 -1.14364e-05 0.200828 1.06138e-05 -18.2811 -24.1567 -14.4767 2.86726 77.1185 -2.94541 21.0061 7.524 1.37544 5.85694e-06 1.2648 -1.01665e-06 
 2.788508 241.788675 495.605967 15.129081 -26.243696 1.758124 0.327217 1.48246 -0.383172 -1.68397 2.79987 -0.273518 -1.65331 2.79951 -0.280257 1.84341 -3.64571 2.70586 -4.61781 10.5753 8.67571 6.23438 -34.9538 -28.1296 -2.39906 -42.8445 -38.9501 -0.000173613 -8.71314e-06 -65.0115 127.625 -70.9396 167.52 -40 -36.6124 32.5463 22.5802 -67.3974 39.2696 -1.62774e-05 -4.37027e-07 55.9039 -54.595 -51.0957 -98.9272 44.7651 -38.8238 43.0728 -163.149 69.1863 155.387 -18.2648 11.1568 -19.8885 -2.32177e-05 0.423345 1.13887e-05 -23.673 -32.7976 -18.4492 11.4372 82.2109 -10.0745 20.8352 5.16383 1.65837 1.17725e-05 3.26079 -1.65217e-06 
 1.991697 247.027900 508.099638 15.726700 -31.486923 2.733338 0.332514 1.75727 -0.361721 -1.79349 3.4191 -0.290883 -1.75164 3.41838 -0.301186 2.2784 -3.2491 2.75746 -5.02541 12.1444 8.81018 7.0456 -33.2969 -26.964 -4.42697 -39.9689 -37.6928 -0.00019451 9.71362e-07 -69.4487 126.494 -69.2279 164.105 -40 -36.3164 35.8731 21.3159 -66.3039 31.1664 5.84833e-06 2.8457e-06 62.768 -56.1086 -48.3279 -100.499 56.4054 -47.1516 56.6519 -164.803 64.9137 157.242 -18.4026 9.29246 -20.3471 -2.38899e-05 0.598516 -2.79561e-06 -30.3918 -41.6898 -23.456 36.3878 85.6566 -35.517 22.4071 3.61544 1.65733 1.2984e-05 -1.15729 -6.77703e-06 
 0.923122 253.134036 520.490326 16.807193 -36.910880 4.028371 -0.0170509 2.02534 -0.396434 -1.88381 4.02971 -0.305484 -1.82988 4.02854 -0.31988 2.73226 -2.88676 2.81177 -5.40893 13.7275 8.92207 7.76787 -31.6126 -25.8617 -6.26353 -36.469 -36.7079 -0.000234331 -2.20692e-06 -73.1967 126.11 -67.8799 161.139 -40 -35.7414 38.9955 21.6468 -65.1038 24.6992 -4.08e-05 5.83464e-06 68.8242 -57.2029 -46.0781 -101.106 69.0157 -53.9281 71.3092 -163.766 64.2726 156.15 -19.6991 8.01543 -16.929 -3.2843e-06 0.834491 -5.26377e-06 -39.3307 -50.2443 -31.129 93.0799 86.5835 -93.6793 19.498 0.647022 2.07499 2.11271e-06 1.4523 -2.54074e-06 
